<svg xmlns="http://www.w3.org/2000/svg" viewBox="0 0 48 48"><radialGradient id="g" cx="19" cy="19" r="30" gradientUnits="userSpaceOnUse"><stop offset="0" stop-color="#feda75"/><stop offset=".5" stop-color="#d62976"/><stop offset="1" stop-color="#4f5bd5"/></radialGradient><path fill="url(#g)" d="M34 4H14C8.5 4 4 8.5 4 14v20c0 5.5 4.5 10 10 10h20c5.5 0 10-4.5 10-10V14c0-5.5-4.5-10-10-10z"/><path fill="#fff" d="M24 15c4.96 0 9 4.04 9 9s-4.04 9-9 9-9-4.04-9-9 4.04-9 9-9m0-3c-6.63 0-12 5.37-12 12s5.37 12 12 12 12-5.37 12-12-5.37-12-12-12zm11-1.5a2.5 2.5 0 1 0 0 5 2.5 2.5 0 0 0 0-5z"/></svg>